<svg fill="none" height="1000" viewBox="0 0 1000 1000" width="1000" xmlns="http://www.w3.org/2000/svg"><path d="m0 0h1000v1000h-1000z" fill="#fff"/><path d="m619.583 573.546 221.667 127.75c4.083 2.333 4.083 7.583 0 9.917l-221.667 127.75c-1.75 1.166-4.083 1.166-5.833 0l-221.667-127.75c-4.083-2.334-4.083-7.584 0-9.917l221.667-127.75c1.75-1.167 4.083-1.167 5.833 0zm-236.25-126.583v256.083c0 2.333-1.166 4.083-2.916 5.25l-221.667 127.75c-4.083 1.75-8.75-1.167-8.75-5.25v-256.083c0-2.334 1.167-4.084 2.917-5.25l221.666-127.75c4.084-2.334 8.75.583 8.75 5.25zm466.667-269.5v256.083c0 2.333-1.167 4.083-2.917 5.25l-221.666 127.75c-4.084 2.333-8.75-.583-8.75-5.25v-256.083c0-2.334 1.166-4.084 2.916-5.25l221.667-127.75c4.083-2.334 8.75.583 8.75 5.25zm-463.75-8.167 221.667 127.75c4.083 2.333 4.083 7.583 0 9.917l-221.667 127.75c-1.75 1.166-4.083 1.166-5.833 0l-221.667-127.75c-4.083-2.334-4.083-7.584 0-9.917l221.667-127.75c1.75-1.167 4.083-1.167 5.833 0z" fill="#000"/></svg>