<svg fill="none" height="1000" viewBox="0 0 1000 1000" width="1000" xmlns="http://www.w3.org/2000/svg"><path d="m0 0h1000v1000h-1000z" fill="#fff"/><g clip-rule="evenodd" fill-rule="evenodd"><path d="m410.016 241.339c2.145 2.596 3.274 5.532 3.274 8.467 0 5.194-3.048 10.049-8.355 12.307-94.274 37.822-160.887 130.177-160.887 237.661 0 110.984 70.791 205.597 169.581 241.162l3.048 1.016c7 2.371 10.5 10.274 7.791 17.161-2.145 5.193-7 8.468-12.307 8.468-1.355 0-2.709-.226-4.177-.678-110.532-38.274-190.242-143.5-190.242-267.129 0-118.661 73.5-220.5 177.484-262.161 5.193-2.032 11.064-.452 14.79 3.726zm190.242-4.629c1.449 0 2.898.189 4.347.743l.395.16c103.984 41.661 177.597 143.5 177.597 262.161 0 79.032-32.629 150.613-85.129 201.984-5.307 5.081-13.774 4.968-18.403-.79l-1.017-1.129c-4.177-4.968-3.725-12.42 1.017-17.049 47.645-46.516 77.225-111.322 77.225-183.016 0-107.371-66.725-199.726-160.887-237.661-8.129-3.274-10.838-13.21-5.871-20.097l.678-.79c2.596-2.936 6.322-4.516 10.048-4.516zm-82.419 213.5c-1.016 8.016-7.565 14.564-15.581 15.58-11.855 1.468-21.79-8.467-20.21-20.322 1.017-8.016 7.565-14.565 15.581-15.581 11.855-1.468 21.79 8.468 20.21 20.323zm-10.434-232.468c.026 0 .051.024.076.072l5.139.036.307.001c.678 0 1.129.564 1.129 1.129v40.758c0 1.016 1.355 1.581 2.033.79l32.967-38.274c.226-.339.678-.452 1.129-.339l8.171 1.829 4.144.942 3.108.719 2.922.687 2.068.496 1.962.479 1.248.311 1.782.453 1.128.294c.746.213 1.09 1.131.65 1.708l-48.183 55.873c-.677.677-.113 1.919.904 1.919h44.935c.677 0 1.129.452 1.129 1.129v24.839c0 .677-.452 1.129-1.129 1.129h-150.389c-.629 0-1.063-.39-1.122-.988l-.007-.141v-24.839c0-.629.39-1.063.988-1.122l.141-.007h44.936c.972 0 1.53-1.136.984-1.828l-.081-.091-48.097-55.775c-.564-.564-.226-1.58.565-1.806l1.127-.294 1.782-.453 1.89-.469 1.32-.321 2.781-.665 4.523-1.054 4.938-1.125 8.171-1.829c.401-.1.803-.022 1.046.234l.083.105 32.968 38.274c.649.758 1.92.271 2.025-.666l.007-.124v-40.758c0-.524.389-1.049.987-1.121l.142-.008 5.444-.035c.027-.05.053-.074.079-.074l7.576.026z" fill="#ecb731"/><path d="m499.996 150c192.949 0 349.995 157.046 349.995 349.996 0 104.66-46.177 198.594-119.224 262.948-4.516 3.951-9.145 7.903-14 11.629-1.581 1.242-3.161 2.484-4.855 3.725-1.016.791-1.242 2.258-.338 3.275 23.822 28.677 36.805 44.257 39.064 46.854 4.628 5.645 3.951 13.887-1.694 18.516s-13.887 3.951-18.516-1.694l-27.774-33.306c-4.064-4.855-8.354-10.048-12.871-15.58-.677-.903-2.032-1.016-2.935-.452-2.484 1.581-4.968 3.049-7.452 4.516-52.612 31.5-113.917 49.564-179.4 49.564-13.887 0-27.774-.79-41.21-2.484-21.677-2.596-42.902-7.113-63.225-13.435-142.143-44.483-245.561-177.482-245.561-334.076 0-191.03 153.998-346.835 344.238-349.996zm-14.678 605.944-19.87 49.79c-.565 1.354.338 2.935 1.806 3.048 1.016.113 2.032.226 3.048.339 6.662.564 13.323 1.016 19.984 1.242l3.839.112c1.354 0 4.967.001 7.112.113 1.017 0 1.92-.677 2.146-1.58l13.435-43.806c.339-1.242-.339-2.597-1.694-2.823-2.709-.564-5.419-1.242-8.129-1.919-6.322-1.581-12.532-3.5-18.854-5.758-1.129-.452-2.371.113-2.823 1.242zm171.611 1.016c-.564-.677-1.468-1.016-2.371-.677-3.161.903-5.306 1.467-6.661 1.806-18.742 4.855-45.951 10.048-77.112 10.048-8.129 0-16.484-.338-25.064-1.129-1.016-.113-2.032.565-2.371 1.581l-11.403 37.145c-.452 1.58.79 3.048 2.371 2.935 43.241-4.855 83.773-18.403 119.788-39.177 2.71-1.58 4.855-2.822 6.436-3.839 1.242-.677 1.468-2.258.564-3.387-1.242-1.806-2.709-3.5-4.177-5.306zm-156.933-567.444c-15.468 0-30.71 1.129-45.5 3.387l-5.532.903c-9.935 1.581-19.645 3.613-29.242 6.322l-1.919.565c-131.418 36.016-228.287 156.595-228.287 299.303 0 139.659 92.692 258.093 219.819 296.931 5.646 1.807 11.178 3.274 16.936 4.742h.113c3.161.79 6.322 1.468 9.483 2.145 1.129.226 2.145-.338 2.597-1.355l22.58-56.902c.452-1.129 0-2.371-1.129-2.823-2.483-1.241-4.967-2.596-7.451-3.951-21-11.629-41.774-27.548-61.193-48.887-52.612-57.805-68.418-131.643-43.354-202.658 20.661-58.596 65.934-104.434 110.305-111.434 39.403-6.097 71.805.112 96.305 18.628 19.419 14.678 32.516 36.355 38.387 63.225.564 2.371 1.129 5.984 1.919 11.065.226 1.129 1.129 1.919 2.258 1.919 3.5 0 7.113.113 10.839.339l1.467.113c7.565.451 13.097 7.338 12.081 14.79-.903 6.435-6.21 11.29-12.645 11.403h-.339-.903c-36.806-2.258-64.58 7.903-75.531 28.338-8.468 15.919-5.307 35.564 8.242 51.596l3.499 4.065c14.113 16.484 60.629 71.918 139.434 166.417.79.903 2.145 1.129 3.048.339 1.807-1.355 3.5-2.71 5.307-3.952l.113-.113c4.516-3.725 9.032-7.451 13.435-11.29 64.58-56.789 105.337-140.111 105.337-232.69 0-130.176-80.499-241.949-194.304-287.9-13.096-5.306-26.531-9.822-40.418-13.21h-.113c-1.016-.338-2.145-.564-3.274-.903l-1.694-.338c-5.871-1.355-11.742-2.597-17.725-3.613l-2.033-.339c-16.596-2.823-33.532-4.177-50.918-4.177zm38.612 225.916c-18.516-14-44.145-18.516-76.209-13.548-34.661 5.419-72.37 44.935-89.644 93.934-12.758 36.242-24.725 107.257 38.048 176.24 76.548 83.999 174.321 74.515 223.32 62.66 1.581-.338 2.258-2.371 1.242-3.612-3.726-4.517-10.613-12.645-13.887-16.597-.452-.565-1.242-.903-2.032-.79-13.21 1.467-23.936 2.258-32.177 2.258-39.403 0-95.402-9.71-142.821-55.096-61.08-58.484-55.322-121.37-47.87-150.724 2.145-8.355 10.838-12.984 18.741-10.387l.226.113c5.419 3.387 8.129 9.935 6.323 16.257-6.21 22.694-12.307 75.08 40.644 125.773 44.258 42.338 98.338 48.774 132.886 47.532 1.919-.113 2.822-2.258 1.693-3.726l-15.355-18.403c-27.096-32.29-50.015-59.499-60.967-72.144-20.999-24.274-25.628-56.338-11.967-81.854l.339-.677c5.87-10.613 20.435-29.355 52.386-37.71.79-.225 3.274-.79 5.194-1.242 1.129-.225 1.919-1.354 1.693-2.483-.452-3.275-1.129-6.662-1.919-10.162-3.726-15.806-11.629-33.306-27.887-45.612z" fill="#00363d"/></g></svg>