<svg xmlns="http://www.w3.org/2000/svg" width="400" height="339" viewBox="0 0 400 339"><g fill="none"><path fill="#fff" d="M297.586 0v297.347h-45.544V261.58h-97.407l-27.78 35.767H61.878zm-45.544 136.513L180.03 229.15h72.012z"/><path fill="#47428e" d="M247.154 153.085v10.969l-47.094 60.208h-8.585zm0 21.58v14.545l-27.422 35.052h-11.446zm0 25.156v13.473l-8.585 10.968h-10.492zm0 72.131v12.638l-42.325 53.532-4.77-5.961zm-4.054-5.484-47.332 60.566-5.366-6.557 42.206-54.009zm-18.838 0L186.11 315.35l-5.484-6.557 33.144-42.325zm-18.718 0-29.09 37.198-5.485-6.557 23.964-30.641zm-18.838 0-19.91 25.514-5.961-7.034 14.426-18.48zm-19.672 0-10.372 13.353-4.412-5.365 6.2-7.988zm52.102-175.5L112.072 226.17l-2.743-3.338L212.46 90.969zm-14.904 0-99.076 126.737-6.08-7.273L192.429 90.97zm195.768 0-97.526 123.518v-13.234l86.2-110.283zm-215.797 0-89.42 114.338-6.795-8.227 83.1-106.11zm-21.342 0L83.815 191.953l-4.65-5.484 74.755-95.5zm217.586 0-77.973 99.673v-13.473l67.362-86.2zm-234.754 0-70.7 90.373-5.246-6.319L135.44 90.97zm-18.48 0-61.758 78.928-5.366-6.558 56.632-72.37zm234.397.12-59.136 75.589v-13.473l48.644-62.116zm-253.115-.12-52.698 67.244-4.53-5.485L99.553 90.97zm-17.169 0-44.351 56.633-5.246-6.32L81.073 90.97zm251.565 0-40.417 51.744V129.24l29.806-38.271zm-270.045 0-35.29 45.187-5.246-6.319L62.593 90.97zm-18.48 0L28.019 124.71l-5.365-6.557L43.876 90.97zm269.688 0-21.58 27.66v-14.664l10.134-12.995zm-288.525 0-17.168 22.057-4.889-5.842L26.11 90.97zm-17.764 0-8.585 11.09-4.41-5.366 4.411-5.723zm286.497 0-1.788 2.385V90.97zm-303.308.12v.596H0v-.596z"/></g></svg>