<svg height="339" viewBox="0 0 400 339" width="400" xmlns="http://www.w3.org/2000/svg"><g fill="none"><path d="m297.585693 0v297.347243h-45.543964v-35.767511h-97.406856l-27.779433 35.767511h-64.9776457zm-45.543964 136.512668-72.011923 92.637854h72.011923z" fill="#fff"/><g fill="#47428e" transform="translate(0 90.968703)"><path d="m247.153502 62.1162444v10.9687034l-47.093889 60.2086442h-8.584203zm0 21.5797318v14.5454545l-27.421758 35.0521613h-11.445604zm0 25.1564828v13.472429l-8.584202 10.968704h-10.491804z"/><path d="m247.153502 180.983607v12.637854l-42.324888 53.532041-4.769001-5.961252zm-4.053651-5.484352-47.33234 60.566319-5.365126-6.557377 42.205663-54.008942zm-18.837556 0-38.152012 48.882265-5.484352-6.557377 33.144561-42.324888zm-18.718331 0-29.090909 37.198211-5.484352-6.557377 23.964233-30.640834zm-18.837556 0-19.910581 25.514158-5.961252-7.034277 14.42623-18.479881zm-19.672131 0-10.372578 13.353204-4.411326-5.365127 6.199702-7.988077zm52.101341-175.499255-107.064083 135.201192-2.742176-3.338301 103.129657-131.862891zm-14.903129 0-99.076006 126.736215-6.080477-7.272728 93.353204-119.463487zm195.767511 0-97.52608 123.517139v-13.23398l86.199701-110.283159zm-215.797317 0-89.4187784 114.336811-6.7958271-8.226528 83.0998505-106.110283zm-21.341282 0-79.0461998 100.983607-4.6497765-5.4843522 74.7540983-95.4992548zm217.585693 0-77.973174 99.6721311v-13.4724292l67.362146-86.1997019zm-234.754098 0-70.7004476 90.3725782-5.2459016-6.3189269 65.6929952-84.0536513zm-18.479881 0-61.7585695 78.9269747-5.3651267-6.5573771 56.6318922-72.3695976zm234.396423.11922504-59.135618 75.58867366v-13.4724293l48.643815-62.11624436zm-253.114754-.11922504-52.6974666 67.242921-4.5305514-5.4843517 48.2861401-61.7585693zm-17.1684055 0-44.3517138 56.6318927-5.2459017-6.318927 39.3442623-50.3129657zm251.5648285 0-40.417287 51.7436662v-13.4724292l29.806259-38.271237zm-270.0447092 0-35.2906111 45.1862891-5.2459016-6.318927 30.2831595-38.8673621zm-18.4798808 0-26.3487332 33.7406855-5.3651267-6.557377 21.2220566-27.1833085zm269.687034 0-21.579731 27.6602086v-14.6646795l10.134128-12.9955291zm-288.5245899 0-17.1684054 22.0566319-4.8882265-5.8420268 12.637854-16.2146051zm-17.7645305 0-8.58420273 11.0879285-4.41132638-5.36512671 4.41132638-5.72280179zm286.4977644 0-1.788375 2.38450075v-2.38450075zm-303.3084947.11922504v.59612518h-.9538003v-.59612518z"/></g></g></svg>