<svg xmlns="http://www.w3.org/2000/svg" width="456" height="376" fill="none"><path fill="#E0E0E0" d="M339.754 79.617h-50.15v72.691h50.15z"/><path fill="#F5F5F5" d="M337.242 79.617h-50.15v72.691h50.15z"/><path fill="#fff" d="M331.012 87.49h-37.689v56.945h37.689z"/><path fill="#E0E0E0" d="M331.012 144.435s-.005-.096-.007-.278l-.007-.808-.015-3.123-.034-11.73-.062-41.005.125.125-37.684.011h-.004l.136-.136-.028 56.945-.109-.109 27.432.057 7.579.028 1.989.012c.451.003.689.011.689.011s-.222.008-.665.012l-1.969.012-7.555.028-27.5.057h-.109v-.109l-.028-56.945v-.137h.141l37.684.011h.125v.125l-.062 41.087-.034 11.702-.015 3.098-.007.793a6 6 0 0 1-.006.266"/><path fill="#E0E0E0" d="M337.383 79.617c.029.023-.311.52-.894 1.299a84 84 0 0 1-2.353 2.984 84 84 0 0 1-2.479 2.882c-.653.72-1.076 1.15-1.103 1.126-.029-.025.342-.5.957-1.252l2.415-2.93 2.412-2.93c.621-.748 1.015-1.203 1.045-1.18"/><path fill="#fff" d="M331.204 144.251a46.7 46.7 0 0 0 6.574 8.221Z"/><path fill="#E0E0E0" d="M337.777 152.472c-.025.025-.472-.363-1.146-1.043a36 36 0 0 1-2.48-2.797 36 36 0 0 1-2.183-3.035c-.514-.807-.795-1.329-.765-1.347.034-.021.371.464.925 1.239.553.776 1.33 1.837 2.236 2.972a68 68 0 0 0 2.407 2.835c.636.712 1.035 1.148 1.006 1.176"/><path fill="#fff" d="m287.085 152.25 6.569-8.105Z"/><path fill="#E0E0E0" d="M293.654 144.145c.059.047-1.365 1.9-3.178 4.138-1.814 2.239-3.332 4.014-3.391 3.967-.058-.047 1.364-1.9 3.179-4.138 1.813-2.238 3.331-4.014 3.39-3.967m-6.562-64.528c.059-.047 1.487 1.66 3.188 3.812s3.034 3.934 2.975 3.98c-.059.048-1.486-1.66-3.189-3.811-1.701-2.152-3.033-3.935-2.974-3.981m32.178 19.435h-12.62v35.831h12.62z"/><path fill="#F5F5F5" d="M239.996 283.024c-4.599 1.337-8.318 4.958-10.495 9.225-2.178 4.266-2.944 9.132-3.009 13.921-.127 9.266 3.892 19.148 8.552 27.158 8.546-5.735 11.805-17.221 13.092-23.152 2.035-9.374.021-27.55-8.14-27.152m-15.811 64.243c1.888-5.006.46-10.943-3.054-14.978s-8.861-6.234-14.205-6.502c-2.471-.124-5.206.254-6.863 2.09-1.55 1.717-1.737 4.364-.933 6.533s2.451 3.923 4.239 5.389c6.134 5.03 12.992 8.772 20.816 7.468"/><path fill="#E0E0E0" d="M230.601 369.554c.124-.015.1-2.343-.277-6.12-.189-1.891-.686-4.154-1.525-6.52-.849-2.354-1.729-4.964-3.066-7.574-2.615-5.232-6.353-9.202-9.52-11.342a22 22 0 0 0-3.964-2.164c-1-.373-1.566-.528-1.591-.464-.075.173 2.148.973 5.122 3.222 2.966 2.231 6.48 6.128 9.027 11.219 1.292 2.515 2.2 5.109 3.09 7.422.876 2.319 1.419 4.449 1.7 6.302.558 3.707.843 6.039 1.004 6.019"/><path fill="#E0E0E0" d="M240.308 297.001c-.071-.011-.315 1.065-.695 3.021a400 400 0 0 0-1.496 8.305 799 799 0 0 0-4.214 27.52c-1.452 10.781-2.492 20.576-3.095 27.678-.302 3.551-.512 6.427-.618 8.418-.11 1.99-.136 3.093-.065 3.099s.234-1.086.467-3.064l.946-8.38c.79-7.076 1.944-16.843 3.394-27.612l3.91-27.544 1.17-8.355c.258-1.976.367-3.074.296-3.086"/><path fill="#F5F5F5" d="M235.348 352.254c4.614-10.294 14.494-18.055 25.587-20.101 2.825-.521 6.303-.42 7.855 1.997 1.555 2.421.188 5.641-1.52 7.956-7.107 9.635-20.425 14.19-31.944 10.926"/><path fill="#E0E0E0" d="M257.021 339.601c-.022-.068-.589.057-1.595.343-1.012.272-2.444.761-4.2 1.415-3.452 1.38-8.323 3.501-12.616 7.438a25.2 25.2 0 0 0-5.022 6.406c-1.215 2.209-1.857 4.398-2.292 6.23-.37 1.85-.561 3.365-.559 4.417-.032 1.05-.016 1.628.056 1.631.208.017.291-2.309 1.216-5.873.514-1.761 1.204-3.849 2.417-5.944a25.9 25.9 0 0 1 4.888-6.104c4.13-3.793 8.846-5.987 12.194-7.523 3.398-1.482 5.567-2.278 5.513-2.436"/><path fill="#F5F5F5" d="M430.591 107.763s-10.483-3.094-14.722 21.013c-4.239 24.106-4.582 37.365-4.582 37.365s-1.47 5.229-5.346 3.293-10.467-8.778-15.122-5.757c-4.827 3.133-4.76 9.571-1.094 17.937s11.026 26.992 11.686 28.679c.647 1.656.441 4.45-2.41 3.555-2.852-.896-21.029-11.839-25.705-2.902-4.676 8.936 9.368 30.566 10.858 32.96s1.321 3.663.281 4.687-6.804-3.23-12.101-6.13-11.949-5.335-14.214.047 2.038 23.521 27.818 47.228l12.665 10.203 15.33-5.643c32.071-14.075 42.02-29.84 41.621-35.666s-7.481-5.678-13.432-4.65-12.782 3.184-13.435 1.878c-.652-1.306-.401-2.561 1.785-4.343s22.48-17.694 20.952-27.663-22.271-5.508-25.259-5.584c-2.988-.077-2.277-2.787-1.128-4.144 1.17-1.382 14.168-16.618 20.348-23.345s8.329-12.796 4.777-17.324c-3.424-4.366-11.877-.029-16.171.546S430 169.155 430 169.155s3.972-12.654 7.773-36.833c3.801-24.18-7.396-24.607-7.396-24.607"/><path fill="#E0E0E0" d="M426.758 129.345s-.008.175-.052.511l-.208 1.491-.85 5.725c-.745 4.972-1.875 12.157-3.307 21.03-2.857 17.747-7.013 42.23-11.691 69.253-4.681 27.032-8.897 51.504-11.852 69.234l-3.48 20.999-.953 5.708-.261 1.482c-.062.333-.108.502-.108.502s.008-.174.052-.511l.208-1.491.85-5.725c.745-4.971 1.875-12.156 3.307-21.029 2.857-17.748 7.013-42.232 11.694-69.264 4.679-27.023 8.895-51.492 11.85-69.222l3.48-21 .953-5.709.262-1.483c.06-.332.106-.501.106-.501"/><path fill="#E0E0E0" d="M399.655 173.619c.032-.021.288.311.723.93a86 86 0 0 1 1.781 2.66c1.469 2.268 3.416 5.455 5.499 9.01l5.291 9.126 1.616 2.757c.383.65.581 1.02.549 1.04s-.29-.309-.73-.924a70 70 0 0 1-1.768-2.67c-1.447-2.283-3.352-5.494-5.434-9.049l-5.355-9.084-1.63-2.75c-.379-.654-.574-1.025-.542-1.046m16.972 25.362c-.083-.128 6.306-4.435 14.268-9.62 7.965-5.186 14.487-9.286 14.57-9.158s-6.305 4.434-14.27 9.62c-7.961 5.185-14.485 9.286-14.568 9.158m-9.059 41.181c-.009-.037.393-.182 1.129-.413l3.122-.952c2.634-.806 6.269-1.93 10.234-3.315 3.97-1.377 7.52-2.745 10.083-3.754l3.039-1.191c.72-.276 1.125-.413 1.141-.378.015.035-.361.238-1.056.575s-1.709.805-2.975 1.354a143 143 0 0 1-10.051 3.915 146 146 0 0 1-10.308 3.17c-1.335.35-2.418.62-3.173.784-.754.167-1.175.242-1.185.205m-20.4-19.561c.026-.028.339.215.882.677a121 121 0 0 1 2.264 1.996 536 536 0 0 1 7.326 6.737 529 529 0 0 1 7.217 6.856 119 119 0 0 1 2.144 2.124c.498.511.761.806.735.834s-.338-.215-.881-.677a121 121 0 0 1-2.264-1.996 541 541 0 0 1-7.328-6.738 541 541 0 0 1-7.216-6.855 123 123 0 0 1-2.144-2.124c-.498-.511-.761-.806-.735-.834m-12.615 35.339c.026-.028.422.286 1.117.879l2.909 2.548c2.44 2.17 5.785 5.195 9.457 8.561a881 881 0 0 1 9.349 8.682l2.79 2.677c.651.641.998 1.009.972 1.037s-.422-.286-1.117-.879l-2.909-2.548a886 886 0 0 1-9.459-8.563 881 881 0 0 1-9.348-8.68l-2.791-2.677c-.648-.641-.996-1.009-.97-1.037m26.124 23.624c-.011-.036.494-.233 1.417-.557l3.915-1.348c3.305-1.14 7.864-2.728 12.848-4.622a425 425 0 0 0 12.687-5.051l3.826-1.583c.906-.369 1.414-.557 1.43-.523s-.463.289-1.342.719-2.162 1.03-3.759 1.745a233 233 0 0 1-12.646 5.208 235 235 0 0 1-12.921 4.476c-1.671.519-3.028.924-3.973 1.183-.944.262-1.471.389-1.482.353"/><path fill="#F5F5F5" d="M78.842 321.345c23.086-13.171 30.586-40.856 32.045-66.227.244-4.235 1.115-8.643-.553-12.532-1.67-3.887-6.123-6.848-10.066-5.416-3.271 1.189-4.971 4.71-7.001 7.566-2.701 3.799-6.482 6.801-10.768 8.55-2.816 1.149-6.221 1.697-8.74-.01-3.457-2.343-3.426-7.413-3.015-11.611l2.298-23.464c.41-4.196.816-8.483-.125-12.587-.941-4.105-3.487-8.071-7.38-9.556s-9.042.366-10.262 4.398c-.508 1.678-.322 3.486-.598 5.217-.276 1.733-1.265 3.587-2.965 3.921-1.721.339-3.292-1.006-4.435-2.35-3.946-4.637-6.386-10.368-8.637-16.051s-4.409-11.488-7.918-16.473-8.612-9.147-14.594-10.039c-5.983-.891-12.73 2.233-14.79 7.997-2.066 5.78.837 12.103 4.156 17.239a94.2 94.2 0 0 0 17.81 20.39c1.237 1.061 2.579 2.207 2.943 3.809.656 2.883-2.252 5.42-5.1 6.087-3.225.756-6.592.12-9.901.205s-6.99 1.205-8.511 4.185c-2.113 4.134 1.064 8.962 4.326 12.231a80.6 80.6 0 0 0 22.506 15.894c2.985 1.413 6.145 2.703 8.437 5.101s3.449 6.31 1.674 9.13c-1.777 2.823-5.727 3.416-8.907 2.518-3.179-.896-5.915-2.918-8.892-4.364-5.571-2.707-13.06-2.992-17.212 1.657-2.729 3.055-3.362 7.601-2.491 11.621.87 4.02 3.053 7.614 5.415 10.961 8.254 11.698 19.293 21.518 32.255 27.386 12.959 5.871 25.247 8.263 38.996 4.617"/><path fill="#E0E0E0" d="M77.456 340.126c.002-10.103-1.111-22.137-3.69-35.235-2.553-13.105-6.543-27.238-11.224-41.876l-3.506-10.826c-1.16-3.55-2.308-7.072-3.645-10.446-2.645-6.762-5.702-13.061-8.792-18.95-3.088-5.893-6.233-11.372-9.211-16.473-2.991-5.097-5.867-9.796-8.672-13.966-5.585-8.366-10.878-14.567-14.685-18.676a138 138 0 0 0-4.474-4.65l-1.2-1.172q-.412-.392-.427-.38-.013.016.37.436l1.146 1.226a223 223 0 0 1 4.365 4.746 158 158 0 0 1 14.452 18.78c2.768 4.178 5.61 8.882 8.572 13.986 2.952 5.113 6.072 10.595 9.136 16.481 3.064 5.884 6.095 12.167 8.715 18.895 1.324 3.358 2.46 6.849 3.619 10.409l3.5 10.821c4.677 14.627 8.678 28.719 11.263 41.778 2.608 13.049 3.773 25.028 3.84 35.095"/><path fill="#E0E0E0" d="M55.174 241.693c.05.013.252-.612.574-1.754.327-1.14.745-2.804 1.232-4.869.977-4.126 2.13-9.871 3.38-16.209 1.249-6.342 2.482-12.053 3.519-16.153.513-2.051.944-3.708 1.257-4.849.307-1.144.453-1.784.402-1.801s-.293.593-.69 1.711c-.402 1.116-.915 2.755-1.496 4.795-1.177 4.078-2.5 9.795-3.75 16.143l-3.156 16.244c-.392 1.952-.724 3.596-.99 4.916-.231 1.163-.335 1.813-.282 1.826"/><path fill="#E0E0E0" d="M2.113 226.658c-.006.053.754.213 2.13.455 1.374.25 3.364.602 5.808 1.115 4.896.987 11.61 2.587 18.942 4.676 7.33 2.103 13.882 4.288 18.575 6.006 2.354.842 4.24 1.575 5.547 2.074 1.305.504 2.037.759 2.059.71.02-.051-.672-.4-1.944-.993a103 103 0 0 0-5.47-2.312c-4.657-1.855-11.205-4.132-18.556-6.242-7.353-2.094-14.114-3.616-19.051-4.465a91 91 0 0 0-5.867-.871c-1.393-.15-2.165-.208-2.173-.153m71.08 77.18c.023.013.171-.201.43-.624l1.102-1.868c.95-1.627 2.263-4.017 3.846-6.99 3.171-5.946 7.293-14.297 11.717-23.573 4.427-9.28 8.465-17.658 11.508-23.661 1.488-2.918 2.714-5.317 3.624-7.101l.976-1.938c.215-.446.317-.687.294-.702-.024-.012-.171.203-.431.626l-1.102 1.867c-.95 1.627-2.263 4.016-3.846 6.99-3.17 5.946-7.293 14.297-11.719 23.577-4.425 9.277-8.464 17.654-11.506 23.659-1.49 2.916-2.714 5.317-3.624 7.099l-.976 1.938c-.214.447-.316.687-.293.701"/><path fill="#E0E0E0" d="M3.574 274.144c-.009.026.227.148.685.359l2.02.889 7.454 3.193c6.293 2.698 14.943 6.524 24.494 10.764 9.554 4.243 18.248 7.993 24.599 10.561 3.175 1.285 5.755 2.299 7.551 2.963l2.074.753c.477.164.733.237.743.212.009-.025-.227-.148-.685-.36l-2.02-.888c-1.867-.801-4.386-1.879-7.453-3.193-6.294-2.697-14.944-6.524-24.498-10.766-9.552-4.242-18.244-7.991-24.595-10.559-3.175-1.285-5.755-2.299-7.553-2.963l-2.073-.753c-.477-.164-.732-.237-.743-.212m146.264-254.44v82.535H31.296l-4.271-81.957z"/><path fill="#fff" d="M27.024 20.28v81.785h118.542V20.281z"/><path fill="#E0E0E0" d="M146.13 102.628H26.463v-82.91H146.13zm-118.543-1.125h117.418v-80.66H27.587z"/><path fill="#fff" d="M132.728 30.442H39.864v61.462h92.864z"/><path fill="#E0E0E0" d="M132.728 30.442s-.16.01-.458.016l-1.32.016-5.1.033c-4.46.017-10.946.04-19.137.072l-66.85.132.27-.27.024 61.455v.007l-.293-.293 92.864.059-.233.233.123-44.72.059-12.365.026-3.25c.009-.733.025-1.125.025-1.125s.017.358.025 1.079l.026 3.206.059 12.313.123 44.864.001.233h-.234l-92.864.059h-.293v-.3l.024-61.454v-.27l.269.002 67.025.132 19.076.072 5.046.033 1.29.016c.288.005.427.015.427.015"/><path fill="#E0E0E0" d="M27.025 20.052c.05-.064.825.445 2.038 1.32 1.213.876 2.864 2.118 4.647 3.544a92 92 0 0 1 4.456 3.789c1.104 1.01 1.75 1.678 1.698 1.737-.11.124-2.96-2.226-6.52-5.07-3.562-2.838-6.424-5.186-6.32-5.32m118.543.23c.1.127-2.693 2.504-6.237 5.31-3.546 2.806-6.501 4.978-6.602 4.85-.1-.126 2.692-2.503 6.238-5.31 3.545-2.805 6.501-4.977 6.601-4.85"/><path fill="#fff" d="m145.473 102.077-13.217-10.712Z"/><path fill="#E0E0E0" d="M132.256 91.365c.102-.126 3.143 2.17 6.793 5.128s6.526 5.458 6.424 5.584-3.143-2.17-6.793-5.13c-3.649-2.957-6.526-5.457-6.424-5.582m-105.231 10.7c-.1-.127 2.663-2.48 6.172-5.255s6.436-4.923 6.536-4.796-2.663 2.479-6.173 5.255c-3.509 2.776-6.435 4.923-6.535 4.796m31.693-52.474v20.58h58.432v-20.58zM423.567.522h-63.382v91.869h63.382z"/><path fill="#F5F5F5" d="M420.392.522H357.01v91.869h63.382z"/><path fill="#fff" d="M412.516 10.472h-47.632V82.44h47.632z"/><path fill="#E0E0E0" d="M412.517 82.44s-.006-.121-.009-.351l-.009-1.02-.019-3.948-.042-14.825-.078-51.824.158.158-47.627.014h-.006l.172-.172-.035 71.969-.137-.137 34.67.072 9.579.035 2.514.015c.569.005.869.015.869.015s-.28.01-.84.015l-2.489.015-9.548.035-34.755.072h-.137v-.138l-.035-71.97v-.17h.179l47.627.014h.158v.158l-.078 51.928-.043 14.789-.019 3.916-.009 1.003q-.01.336-.011.334"/><path fill="#E0E0E0" d="M420.569.522c.037.029-.393.657-1.13 1.64a105 105 0 0 1-2.974 3.773 107 107 0 0 1-3.133 3.642c-.825.91-1.359 1.454-1.394 1.423-.036-.032.432-.631 1.21-1.582l3.052-3.702 3.049-3.704c.784-.945 1.282-1.52 1.32-1.49"/><path fill="#fff" d="M412.759 82.209a59 59 0 0 0 8.308 10.39Z"/><path fill="#E0E0E0" d="M421.067 92.599c-.031.032-.597-.46-1.448-1.318a46 46 0 0 1-3.134-3.535 46 46 0 0 1-2.759-3.835c-.65-1.02-1.004-1.68-.967-1.703.043-.027.47.586 1.169 1.566s1.68 2.322 2.826 3.757a86 86 0 0 0 3.042 3.583c.803.898 1.307 1.449 1.271 1.485"/><path fill="#fff" d="m357 92.318 8.302-10.243Z"/><path fill="#E0E0E0" d="M365.302 82.075c.074.06-1.725 2.402-4.017 5.23s-4.211 5.073-4.285 5.013 1.724-2.401 4.017-5.23c2.293-2.828 4.212-5.073 4.285-5.013M357.01.522c.075-.06 1.879 2.098 4.03 4.817s3.834 4.972 3.759 5.03c-.075.06-1.879-2.096-4.03-4.817-2.151-2.718-3.834-4.971-3.759-5.03m40.666 24.563h-15.949v45.284h15.949z"/><path fill="#263238" d="M436.925 375.042c0 .144-97.411.26-217.546.26-120.177 0-217.567-.117-217.567-.26s97.39-.26 217.567-.26c120.135 0 217.546.116 217.546.26M314.702 202.003c1.555 5.998-.517 12.789-5.156 16.896-3.046 2.697-7.021 4.26-9.8 7.232-3.576 3.825-4.606 9.681-3.042 14.678s5.503 9.082 10.227 11.341c6.442 3.081 14.379 2.81 20.595-.703 7.734-4.37 12.236-13.134 13.376-21.944s-.652-17.731-2.977-26.305m74.266 154.148c8.004-1.309 15.503 1.134 23.422 2.888 2.134.473 4.367.885 6.485.345 3.433-.874 5.873-4.215 6.404-7.717.46-3.033-.331-6.208-2.023-8.766-.717-1.083-1.61-2.079-2.739-2.721-1.158-.658-2.502-.911-3.827-1.04-4.82-.466-9.721.607-14.106 2.66s-8.278 5.06-11.701 8.485c-1.676 1.676-1.173 3.615-1.915 5.866M249.959 228.233a62 62 0 0 1 .465-22.959c.77-3.667 1.9-7.318 3.953-10.453.747-1.141 1.669-2.249 2.935-2.754 1.749-.698 3.831-.053 5.211 1.229 1.803 1.673 2.548 4.257 2.471 6.715s-.883 4.832-1.781 7.122c-3.096 7.902-7.97 14.459-13.254 21.1"/><path fill="#E8505B" d="M404.983 257.137c1.823 1.291 42.055 87.887 42.055 87.887a17 17 0 0 0-10.246-1.011l-2.18.582a36.2 36.2 0 0 0-10.955 4.996l-11.465 7.756a3.25 3.25 0 0 1-1.634-2.526l-.031-.332-31.169-53.497z"/><path fill="#FFBE9D" d="m254.09 119.32 10.715 60.932c3.453 8.198 43.689 57.882 43.689 57.882l-13.308 42.741-52.835-72.25a27.63 27.63 0 0 1-7.442-19.384l2.064-65.099z"/><path fill="#E8505B" d="m311.135 228.583 27.591 2.086 24.061 3.733s42.195 11.09 42.195 15.711c0 1.538-11.527 38.229-17.95 60.211-2.772 9.487-3.883 16.235-3.883 16.235l21.833 48.485H301.169v-44.457s-6.969-58.325-5.768-66.291 15.734-35.713 15.734-35.713"/><path fill="#EB996E" d="M241.034 94.702c.159-6.205.792-12.398 1.894-18.506.156-.866.509-1.919 1.382-2.034 1.079-.142 1.629 1.246 1.769 2.325a65.4 65.4 0 0 1-.906 22.108"/><path fill="#E8505B" d="M253.303 223.72c11.838-10.582 12.24-28.913 11.228-43.496-.075-1.076-.155-2.25.463-3.134 1.127-1.613 3.879-1.015 4.98.616s1.04 3.754.938 5.719c.606-1.667 3.209-1.657 4.429-.37s1.426 3.203 1.569 4.971l.394 4.886 34.582 32.96s.951-2.959 3.491-1.268c2.54 1.69 4.181 5.373 4.181 5.373l-24.372 53.196-45.231-55.029s1.421-2.701 3.348-4.424"/><path fill="#E8505B" d="M300.236 260.528c-3.502 4.67-6.422 9.853-7.937 15.489s-1.561 11.762.515 17.218c2.926 7.689 10.189 13.555 18.322 14.796"/><path fill="#FFBE9D" d="m412.191 357.346-1.314 17.697h25.634l6.011-31.254a32.28 32.28 0 0 0-21.671 6.792z"/><path fill="#263238" d="M265.349 219.805c-.032-.016.17-.516.562-1.404.402-.883.938-2.181 1.55-3.801.62-1.617 1.258-3.58 1.867-5.785a68 68 0 0 0 1.512-7.282 68 68 0 0 0 .63-7.413c.046-2.287-.006-4.35-.138-6.077-.124-1.727-.267-3.124-.4-4.085-.122-.962-.173-1.499-.138-1.505s.154.518.338 1.474c.195.954.395 2.351.567 4.085.18 1.734.271 3.811.25 6.118a62 62 0 0 1-.595 7.478 63 63 0 0 1-1.565 7.335c-.639 2.216-1.319 4.181-1.987 5.791-.659 1.613-1.25 2.895-1.71 3.754-.448.864-.711 1.333-.743 1.317m7.535-9.28c-.072-.04.409-.978 1.069-2.538a39 39 0 0 0 2.044-6.272 39 39 0 0 0 .915-6.534c.091-1.691.07-2.745.153-2.749.061-.004.213 1.046.215 2.759.005 1.711-.188 4.087-.775 6.641-.593 2.552-1.461 4.771-2.216 6.307-.755 1.539-1.352 2.416-1.405 2.386m40.62 27.65c-.079-.045.337-.696.579-1.873.256-1.168.24-2.862-.26-4.631-.504-1.772-1.253-3.296-1.738-4.423-.498-1.124-.757-1.845-.691-1.875.066-.029.439.631 1.022 1.714.569 1.086 1.383 2.602 1.908 4.444.523 1.846.481 3.649.116 4.858-.352 1.223-.898 1.821-.936 1.786m-6.017 70.442c-.01.015-.16-.069-.434-.243l-1.185-.782a74 74 0 0 1-4.225-3.074c-1.73-1.367-3.741-3.099-5.613-5.368-1.86-2.26-3.532-5.138-4.343-8.452-.837-3.302-.902-6.586-.574-9.497.327-2.919 1.018-5.48 1.711-7.576a52 52 0 0 1 1.906-4.868c.256-.561.461-.994.609-1.283.147-.29.232-.438.249-.431.035.016-.22.648-.671 1.793-.446 1.146-1.092 2.805-1.742 4.901-.643 2.095-1.288 4.638-1.584 7.515-.298 2.868-.217 6.091.601 9.317.794 3.237 2.404 6.038 4.211 8.278 1.818 2.245 3.782 3.989 5.472 5.385 1.696 1.394 3.13 2.452 4.112 3.195l1.128.861c.253.202.382.315.372.329m56.652 9.894c.005.017-.147.071-.441.159-.296.078-.726.227-1.298.338-1.135.264-2.812.526-4.902.588-4.144.153-10.111-.805-15.561-4.246-5.447-3.451-8.869-8.433-10.507-12.243-.839-1.915-1.321-3.542-1.569-4.681-.145-.565-.195-1.017-.251-1.318-.047-.303-.063-.463-.046-.466.044-.009.184.62.493 1.734a29.5 29.5 0 0 0 1.708 4.578c1.703 3.723 5.111 8.573 10.45 11.956 5.342 3.373 11.184 4.375 15.278 4.318a29.4 29.4 0 0 0 4.869-.419c1.139-.199 1.766-.342 1.777-.298m15.912 19.434c-.139-.036 1.184-5.564 2.955-12.345 1.771-6.783 3.32-12.251 3.459-12.214s-1.184 5.563-2.955 12.346c-1.772 6.781-3.32 12.25-3.459 12.213"/><path fill="#263238" d="M394.044 326.207c-.124.073-4.144-6.499-8.977-14.677-4.835-8.181-8.654-14.87-8.53-14.944.124-.073 4.143 6.497 8.978 14.679 4.834 8.178 8.653 14.869 8.529 14.942m38.344 16.193c.01.098-1.455.221-3.736.797-1.142.28-2.474.717-3.913 1.297a32 32 0 0 0-4.478 2.314 32 32 0 0 0-4.012 3.053c-1.141 1.052-2.108 2.067-2.85 2.979-1.499 1.814-2.239 3.084-2.322 3.033-.031-.018.134-.346.461-.925.317-.585.852-1.39 1.574-2.338.716-.954 1.67-2.013 2.813-3.102a29.5 29.5 0 0 1 4.059-3.14 29.5 29.5 0 0 1 4.577-2.319c1.474-.565 2.84-.973 4.008-1.21 1.166-.246 2.122-.383 2.787-.419.662-.047 1.029-.056 1.032-.02m4.898-6.021c-.008.106-1.61-.086-4.174.133-1.282.098-2.794.359-4.438.779a29.4 29.4 0 0 0-5.153 1.95 29.5 29.5 0 0 0-4.647 2.961c-1.32 1.066-2.434 2.121-3.28 3.089-1.71 1.923-2.515 3.321-2.605 3.264-.031-.018.158-.372.528-1a10 10 0 0 1 .727-1.11c.307-.416.633-.912 1.072-1.395.823-1.014 1.93-2.116 3.258-3.223a27.7 27.7 0 0 1 4.715-3.053 27.7 27.7 0 0 1 5.266-1.949c1.681-.401 3.227-.629 4.532-.681.65-.062 1.242-.026 1.759-.024.518-.004.962.036 1.324.082.723.081 1.12.141 1.116.177"/><path fill="#000" d="M330.635 298.771c-2.358 4.462-.392 9.903 1.76 14.468 1.668 3.538 3.527 7.137 6.563 9.603 2.984 2.424 6.996 3.539 10.803 3.002s7.353-2.719 9.55-5.874c-12.706.053-24.983-8.633-29.162-20.632m46.388-2.752c-1.792 4.294-.441 10.166 1.444 14.419s3.875 9.005 2.364 13.405c-.283.823-.69 1.654-.585 2.518s1.039 1.687 1.812 1.287c.448-.232.645-.756.805-1.235l4.271-12.834" opacity=".3"/><path fill="#FAFAFA" d="M281.944 240.098c-.142-.023.316-3.586 1.023-7.958.707-4.373 1.395-7.899 1.537-7.876s-.316 3.586-1.023 7.959-1.395 7.898-1.537 7.875m-10.539-2.212c-.127.086-1.85-2.319-4.224-5.075-2.366-2.765-4.481-4.832-4.377-4.945.088-.102 2.382 1.812 4.772 4.605 2.399 2.785 3.943 5.343 3.829 5.415m9.041-25.755c.056.042-.368.733-1.129 1.798a63 63 0 0 1-3.156 4.022 63 63 0 0 1-3.459 3.766c-.928.923-1.542 1.453-1.592 1.405-.107-.105 2.083-2.475 4.654-5.508 2.577-3.026 4.561-5.571 4.682-5.483m-3.531-12.586c-.144.057-.711-1.216-1.819-2.482-1.094-1.28-2.272-2.024-2.194-2.158.051-.123 1.42.456 2.588 1.817 1.179 1.352 1.555 2.79 1.425 2.823m-9.115 7.753c.023.142-1.141.444-2.599.676-1.459.231-2.659.303-2.681.161s1.141-.444 2.6-.676c1.457-.231 2.657-.303 2.68-.161m23.007 11.113c-.16-.022.232-2.134-.332-4.653-.53-2.526-1.762-4.286-1.625-4.373.085-.097 1.572 1.607 2.134 4.262.589 2.649-.06 4.817-.177 4.764m12.293 13.218c-.143.076-1.191-2.042-3.217-4.062-2.005-2.042-4.115-3.106-4.038-3.248.035-.122 2.324.764 4.407 2.882 2.101 2.098 2.971 4.394 2.848 4.428m-19.73 22.943c.049.12-1.987.859-4.616.759-2.63-.08-4.611-.958-4.553-1.074.048-.151 2.037.478 4.571.553 2.533.1 4.561-.392 4.598-.238m9.262 4.745c-.143-.054.637-2.36 1.287-5.278.661-2.916.942-5.334 1.095-5.321.134.006.084 2.475-.587 5.436-.66 2.961-1.671 5.215-1.795 5.163m20.224.776c-.106.097-2.061-1.876-4.366-4.407s-4.088-4.661-3.981-4.758 2.061 1.876 4.366 4.407 4.087 4.661 3.981 4.758m9.429 23.367c-.104.1-1.563-1.244-3.26-3.001-1.698-1.758-2.989-3.263-2.886-3.363s1.563 1.243 3.26 3.001 2.989 3.263 2.886 3.363m-17.516 2.228c.089.101-1.58 1.645-3.995 3.041-2.41 1.406-4.578 2.09-4.622 1.962-.056-.142 1.993-1.031 4.36-2.413 2.374-1.37 4.161-2.709 4.257-2.59m8.061 22.237c-.151-.038.448-2.665.746-5.958.314-3.293.21-5.985.365-5.994.131-.015.471 2.699.153 6.042-.303 3.344-1.138 5.949-1.264 5.91m30.307-18.08c-.076.108-2.221-1.388-4.325-3.806-2.117-2.409-3.313-4.734-3.196-4.794.133-.081 1.509 2.087 3.588 4.452 2.065 2.375 4.031 4.027 3.933 4.148m11.075 9.437c-.118-.093 1.396-2.171 3.094-4.84 1.705-2.665 2.951-4.915 3.085-4.846.123.059-.924 2.435-2.646 5.126-1.715 2.695-3.427 4.647-3.533 4.56m-1.623-23.085c-.037.139-2.313-.351-5.082-1.095-2.77-.744-4.985-1.459-4.948-1.598s2.313.351 5.083 1.095 4.984 1.459 4.947 1.598m-8.072 40.622c-.144-.008-.135-2.131.018-4.74s.394-4.719.538-4.71c.144.008.136 2.131-.018 4.741s-.395 4.718-.538 4.709m6.98 13.914c-.147-.069.904-2.142 1.263-4.93.39-2.785-.075-5.062.085-5.089.117-.049.834 2.262.431 5.159-.377 2.898-1.679 4.938-1.779 4.86m-18.09-3.074c-.128.02-.441-2.33.113-5.169.537-2.843 1.698-4.91 1.809-4.844.145.064-.778 2.177-1.298 4.942-.54 2.761-.466 5.065-.624 5.071m-16.498 7.049c-.101.11-2.125-1.617-4.696-3.646-2.567-2.036-4.712-3.608-4.629-3.732.076-.116 2.366 1.274 4.952 3.324 2.589 2.043 4.468 3.953 4.373 4.054m11.176-19.618c.067.127-2.558 1.653-5.864 3.407s-6.041 3.074-6.109 2.947 2.558-1.652 5.865-3.407c3.305-1.754 6.04-3.074 6.108-2.947"/><path fill="#263238" d="M362.79 359.116c.004.018-.219.074-.647.165-.43.08-1.058.242-1.883.349-1.641.268-4.049.501-7.029.45-2.978-.045-6.53-.452-10.346-1.462a43.7 43.7 0 0 1-11.748-5.061 43.7 43.7 0 0 1-9.706-8.336c-2.583-2.986-4.507-5.999-5.855-8.655-1.353-2.656-2.2-4.921-2.68-6.513-.267-.788-.396-1.423-.513-1.844-.106-.424-.153-.649-.136-.654s.098.211.237.625c.149.411.31 1.035.604 1.809.537 1.565 1.431 3.795 2.814 6.406 1.377 2.612 3.315 5.575 5.89 8.511a44.2 44.2 0 0 0 9.62 8.21 44.2 44.2 0 0 0 11.597 5.04c3.768 1.024 7.28 1.466 10.232 1.557 2.954.097 5.35-.078 6.992-.283.825-.075 1.456-.205 1.891-.251.433-.059.662-.081.666-.063"/><path fill="#FAFAFA" d="M332.914 353.942c-.123.04-.496-2.195.469-4.727.938-2.543 2.688-3.982 2.754-3.871.122.107-1.38 1.639-2.266 4.054-.92 2.401-.795 4.544-.957 4.544m-8.234-3.44c.074.14-1.427.873-2.602 2.473-1.203 1.58-1.481 3.227-1.636 3.195-.133.016-.075-1.796 1.219-3.507 1.274-1.725 2.996-2.293 3.019-2.161m31.647 18.837c.005.128-2.277-.052-4.605-1.519-2.343-1.445-3.508-3.415-3.391-3.466.126-.102 1.428 1.648 3.666 3.025 2.221 1.403 4.366 1.802 4.33 1.96m4.925-27.702c.131-.003-.158 2.084-1.792 3.986-1.613 1.921-3.626 2.544-3.644 2.414-.073-.143 1.734-.941 3.247-2.751 1.541-1.785 2.035-3.698 2.189-3.649m13.988 20.656c-.12-.099 1.202-1.77 2.416-4.073 1.23-2.296 1.875-4.325 2.024-4.282.129.027-.303 2.169-1.564 4.526-1.248 2.364-2.782 3.921-2.876 3.829m18.489 2.728c.059.147-1.763.869-3.593 2.377-1.847 1.489-2.921 3.128-3.054 3.04-.119-.052.796-1.885 2.725-3.444 1.915-1.574 3.896-2.1 3.922-1.973m-14.101-23.688c-.155.049-1.025-2.875-2.866-6.115-1.818-3.255-3.867-5.514-3.745-5.621.048-.045.623.464 1.433 1.4a25 25 0 0 1 2.766 3.965 25 25 0 0 1 1.957 4.42c.381 1.178.518 1.933.455 1.951m2.767-29.778c.032.14-2.091.75-4.742 1.362-2.652.612-4.827.994-4.86.854-.032-.14 2.091-.75 4.743-1.362 2.65-.611 4.826-.994 4.859-.854m-8.511-8.899c-.114.088-1.484-1.485-3.061-3.514s-2.764-3.746-2.65-3.834 1.484 1.485 3.062 3.514c1.576 2.029 2.762 3.746 2.649 3.834m21.076-5.341c-.014.137-2.188.002-4.793-.619-2.608-.614-4.611-1.468-4.562-1.597.05-.141 2.108.484 4.682 1.09 2.572.614 4.692.978 4.673 1.126m14.99-.26c-.134-.069.694-1.876 1.53-4.169.845-2.29 1.381-4.203 1.528-4.17.134.027-.181 2.021-1.039 4.349-.85 2.33-1.899 4.056-2.019 3.99m-3.372 20.316c-.033.128-2.112-.395-4.359-1.741-2.256-1.334-3.707-2.911-3.61-3.001.105-.114 1.679 1.256 3.876 2.554 2.188 1.312 4.143 2.041 4.093 2.188m9.747-.618c-.14-.032.352-2.691 1.098-5.939s1.466-5.855 1.606-5.823-.352 2.691-1.099 5.94c-.746 3.247-1.465 5.854-1.605 5.822m-8.14 22.714c-.116.085-1.699-1.885-3.536-4.4s-3.232-4.622-3.116-4.707 1.699 1.885 3.536 4.4 3.232 4.622 3.116 4.707m13.889-8.683c-.14.064-1.053-1.742-2.492-3.761-1.428-2.027-2.829-3.488-2.722-3.599.088-.101 1.684 1.221 3.147 3.298 1.473 2.068 2.192 4.013 2.067 4.062m13.017-1.955c-.129.078-1.436-1.884-3.201-4.185-1.758-2.307-3.309-4.083-3.2-4.186.097-.096 1.835 1.537 3.614 3.87 1.785 2.328 2.906 4.432 2.787 4.501m-3.058 8.627c-.155.007-.054-1.732-1.192-3.411-1.097-1.707-2.735-2.297-2.668-2.438.017-.058.455-.006 1.086.312.628.312 1.418.935 2.017 1.839.595.906.857 1.878.897 2.577.044.705-.08 1.128-.14 1.121m-10.155 11.83c-.075-.021-.052-.267-.131-.621-.073-.35-.278-.824-.686-1.145-.411-.318-.921-.402-1.278-.387-.363.01-.596.092-.634.024-.036-.053.15-.269.577-.388a1.93 1.93 0 0 1 1.655.341 1.93 1.93 0 0 1 .733 1.523c-.011.443-.176.675-.236.653m-104.036 18.912c-.03.121-2.629-.861-4.994-3.247-2.387-2.366-3.368-4.965-3.247-4.995.145-.079 1.305 2.341 3.615 4.626 2.284 2.31 4.705 3.471 4.626 3.616"/><path fill="#FFBE9D" d="M254.187 119.999c-1.604-15.206-4.514-29.514-5.304-44.432-.039-.748-.125-1.59-.71-2.058-.796-.637-2.07-.125-2.591.751-.521.877-.509 1.957-.505 2.976a68.9 68.9 0 0 1-3.963 23.278c-1.719 4.841-3.984 9.499-5.283 14.471-1.298 4.971 1.127 6.658 3.363 11.283"/><path fill="#263238" d="M203.123 59.764c-.093.11-5.717-4.465-12.561-10.219-6.846-5.755-12.319-10.508-12.227-10.618s5.716 4.465 12.562 10.22c6.844 5.753 12.318 10.507 12.226 10.617m28.516-6.85c-.144.007-.709-8.88-1.263-19.85-.554-10.974-.886-19.873-.742-19.88s.709 8.88 1.263 19.853c.554 10.97.886 19.87.742 19.877m-18.162-6.353c-.137.044-1.89-5.028-3.916-11.327-2.027-6.3-3.558-11.444-3.421-11.488s1.89 5.027 3.917 11.328c2.026 6.3 3.557 11.443 3.42 11.487m-16.186 22.578c-.06.131-3.515-1.325-7.715-3.251-4.202-1.927-7.559-3.594-7.499-3.725s3.514 1.325 7.716 3.252c4.2 1.925 7.558 3.593 7.498 3.724m-26.313-11.487c-.018.143-.85.156-1.858.03s-1.812-.344-1.794-.487.85-.156 1.858-.03 1.812.344 1.794.487m35.809-40.358c-.144 0-.26-.818-.26-1.826s.117-1.826.26-1.826.26.817.26 1.826c.001 1.01-.116 1.826-.26 1.826m60.223 14.119c.107.096-4.506 5.39-10.301 11.82-5.797 6.432-10.582 11.567-10.689 11.47s4.504-5.387 10.302-11.82c5.795-6.43 10.581-11.566 10.688-11.47m7.34-7.271c.102.102-.429.797-1.185 1.554s-1.452 1.287-1.554 1.185.429-.797 1.185-1.554c.756-.756 1.452-1.287 1.554-1.185m17.822 25.6c.017.032-.468.318-1.359.808-.889.493-2.192 1.175-3.816 1.993a199 199 0 0 1-12.918 5.903 199 199 0 0 1-13.306 4.974 115 115 0 0 1-4.106 1.293c-.976.284-1.521.425-1.531.391s.513-.24 1.469-.583l4.048-1.448a304 304 0 0 0 13.227-5.107 304 304 0 0 0 12.956-5.753l3.885-1.842c.919-.435 1.435-.66 1.451-.629m-14.627 24.615c.018.065-.989.421-2.652.878a71 71 0 0 1-6.582 1.444 71 71 0 0 1-6.689.822c-1.721.121-2.789.12-2.793.052-.005-.076 1.052-.204 2.757-.418s4.056-.529 6.638-.969c2.581-.442 4.903-.924 6.582-1.288 1.678-.364 2.719-.594 2.739-.521m13.291-2.459c0 .144-1.289.26-2.88.26s-2.88-.117-2.88-.26 1.289-.26 2.88-.26 2.88.116 2.88.26"/><path fill="#FFBE9D" d="M239.196 126.268c-3.986-2.974-6.107-8.26-5.281-13.164.505-2.999 1.99-5.725 3.175-8.526s2.093-5.904 1.37-8.858c-.277-1.13-.789-2.223-.795-3.387s.743-2.464 1.905-2.517c.878-.04 1.621.628 2.173 1.312 1.943 2.41 3.512 9.458 2.528 14.708"/><path fill="#EB996E" d="M244.271 105.835c-.051-.009.102-.808.161-2.266.05-1.456-.015-3.581-.514-6.14-.254-1.275-.616-2.663-1.195-4.069-.292-.698-.633-1.415-1.119-2.033-.48-.609-1.12-1.222-1.876-1.271-.76-.059-1.42.609-1.668 1.399-.281.793-.1 1.69.164 2.574.275.88.602 1.833.695 2.834.1.996.061 2.017-.11 3.021-.696 4.055-2.862 7.34-3.955 10.583-.565 1.618-.905 3.221-.893 4.741a14 14 0 0 0 .616 4.164 14.2 14.2 0 0 0 3.004 5.304c.981 1.077 1.65 1.548 1.615 1.592-.011.014-.179-.099-.492-.329a10 10 0 0 1-1.271-1.125c-1.026-1.047-2.371-2.797-3.207-5.331a14 14 0 0 1-.697-4.277c-.031-1.57.307-3.242.871-4.896 1.101-3.322 3.233-6.603 3.895-10.51.165-.967.201-1.939.109-2.882-.087-.947-.386-1.826-.669-2.744-.266-.9-.484-1.926-.147-2.877.158-.462.412-.898.788-1.227a1.9 1.9 0 0 1 1.38-.493c1.024.094 1.698.825 2.208 1.467.525.684.865 1.428 1.158 2.151.578 1.454.923 2.866 1.158 4.164.46 2.602.467 4.753.354 6.22-.065.734-.138 1.302-.222 1.681-.075.381-.123.579-.141.575"/><path fill="#263238" d="M375.008 187.054c.527 2.877 3.262 5.095 6.177 5.337s5.827-1.321 7.53-3.699 2.263-5.462 1.868-8.36c-.575-4.21-3.373-8.258-7.432-9.515s-9.11.98-10.233 5.079l-4.68 6.535z"/><path fill="#FFBE9D" d="M369.474 174.221c1.9-15.168-9.072-29.029-24.473-30.496-14.516-1.383-27.417 9.426-29.593 23.844-1.907 12.64-3.547 25.399-3.488 30.033.178 13.974 8.354 19.414 11.669 21.048.757.373 2.842.796 3.677.915a.093.093 0 0 1 .078.109l-3.103 16.041c-1.407 10.51 4.46 19.884 14.953 21.413 10.528 1.535 18.758-6.538 20.365-17.056z"/><path fill="#263238" d="M317.817 175.741c.231.327 2.076-.663 4.441-.312 2.367.317 3.926 1.787 4.224 1.534.145-.11-.057-.667-.733-1.328-.664-.656-1.855-1.374-3.33-1.583-1.475-.207-2.793.155-3.587.606-.808.453-1.13.936-1.015 1.083m21.046 4.56c.231.326 2.078-.663 4.441-.312 2.367.317 3.926 1.786 4.225 1.534.144-.11-.055-.667-.734-1.328-.664-.656-1.855-1.374-3.329-1.583-1.475-.206-2.793.155-3.587.606-.808.453-1.131.935-1.016 1.083m-8.185 11.18c.03-.133-1.403-.601-3.741-1.253-.595-.151-1.149-.354-1.191-.781-.079-.457.269-1.072.664-1.732l2.457-4.339c3.435-6.187 6.016-11.31 5.765-11.446-.25-.136-3.238 4.768-6.673 10.955-.832 1.528-1.628 2.984-2.385 4.378-.328.653-.835 1.374-.659 2.325.097.475.493.867.865 1.028.37.175.709.231 1.005.292 2.378.479 3.864.707 3.893.573"/><path fill="#EB996E" d="M327.362 219.578s9.024 2.081 21.449-3.12c0 0-5.364 11.548-22.285 7.443zm3.485-22.25c1.015-1.001 2.595-1.401 4.052-1.026 1.01.26 1.976.906 2.477 1.833.502.927.46 2.133-.224 2.847-.769.805-2.133.817-3.215.332s-1.945-1.37-2.76-2.245c-.225-.242-.455-.494-.574-.798s-.099-.676.132-.88"/><path fill="#263238" d="M337.401 194.132c-.381-.078-.761 2.489-3.224 3.991-2.46 1.509-5.155.821-5.227 1.177-.059.156.537.588 1.687.788 1.128.204 2.836.081 4.343-.838 1.504-.922 2.298-2.329 2.538-3.37.254-1.059.061-1.737-.117-1.748m3.091-21.528c.139.677 2.546.717 5.272 1.456 2.741.684 4.861 1.823 5.313 1.3.204-.252-.097-.914-.911-1.669-.806-.752-2.151-1.552-3.79-1.98-1.639-.425-3.203-.383-4.274-.119-1.079.261-1.666.692-1.61 1.012m-20.285-4.155c.338.598 2.048.278 4.012.537 1.972.19 3.566.889 4.03.382.207-.249.024-.825-.627-1.439-.64-.611-1.775-1.199-3.128-1.355-1.352-.153-2.59.164-3.352.615-.772.45-1.081.971-.935 1.26"/><path fill="#263238" d="M312.665 164.437c2.892 4.414 12.07 1.687 17.613-1.345 5.838 3.87 13.951 2.19 17.994-3.726 3.171 4.039 9.612 2.704 11.961-1.848s1.027-10.816-2.199-14.798-7.946-5.993-12.605-6.853c-11.048-2.041-23.083 2.242-29.693 12.233-3.049 4.609-4.879 10.816-3.071 16.337"/><path fill="#455A64" d="M343.206 137.444c-.011.193-2.611-.306-6.703.376-4.018.673-9.675 2.769-13.887 7.471-4.116 4.769-5.987 10.422-6.671 14.455-.689 4.097-.163 6.684-.342 6.7-.052.01-.224-.621-.377-1.794-.136-1.173-.183-2.897.081-5 .542-4.163 2.34-9.994 6.626-14.967 4.412-4.92 10.324-6.976 14.473-7.503 2.105-.276 3.83-.216 5.001-.083 1.174.126 1.807.295 1.799.345"/><path fill="#455A64" d="M328.267 157.983c-.052.005-.171-.55-.221-1.573-.054-1.022.031-2.519.45-4.313.785-3.543 3.354-8.439 8.302-11.381 4.974-2.902 10.502-2.775 13.981-1.744 1.773.503 3.123 1.155 3.991 1.698.87.54 1.298.913 1.268.956-.089.165-1.937-1.21-5.418-2.028-3.403-.839-8.66-.838-13.358 1.905-4.675 2.778-7.224 7.375-8.141 10.758-.973 3.441-.665 5.725-.854 5.722"/><path fill="#263238" d="M354.78 153.196c-.928 3.938-1.862 7.919-1.864 11.964s1.012 8.224 3.595 11.338c3.861 4.657 10.298 6.069 16.241 7.2a46.9 46.9 0 0 0 2.768-25.035c-.675-4.096-1.993-8.265-4.882-11.246-4.169-4.303-11.43-5.169-16.494-1.969"/><path fill="#263238" d="M358.083 172.558c-1.568 3.379-1.45 7.292-.908 10.977s1.476 7.341 1.44 11.066-1.22 7.667-4.141 9.979c-.831.658-1.787 1.174-2.483 1.973s-1.072 2.02-.516 2.921c.557.901 2.242.882 2.487-.149l-.152.261c-.638 1.094.137 2.518 1.403 2.495 1.98-.037 4.009-1.085 5.336-2.621 1.91-2.211 2.668-5.176 3.17-8.055 1.54-8.831 1.24-17.981 3.678-26.607"/><path fill="#E8505B" d="M324.173 230.546c1.37 5.995 5.445 11.316 10.875 14.202s12.121 3.285 17.855 1.065c5.176-2.003 9.353-5.902 13.39-9.711 1.435 8.644-.959 17.853-6.422 24.704s-13.909 11.234-22.656 11.758c-6.624.397-13.749-1.627-17.914-6.793-2.907-3.605-4.086-8.375-4.039-13.006s1.228-9.174 2.615-13.592c1.187-3.78 3.051-8.02 6.876-9.055"/><path fill="#263238" d="M371.613 184.018c3.96 2.154 6.136 6.649 6.905 11.09s.383 8.991.571 13.495 1.051 9.206 3.897 12.702c3.022 3.714 7.75 5.472 11.965 7.745 9.323 5.027 16.988 13.536 19.796 23.748 2.809 10.213.262 22.024-7.389 29.349-6.962 6.665-17.096 9.011-26.735 8.984-6.876-.02-14.425-1.479-18.713-6.855-4.235-5.309-4.044-12.899-2.496-19.512 1.548-6.612 4.248-13.054 4.354-19.845a35.2 35.2 0 0 1-5.279 11.736c-.704 1.013-1.914 2.106-3.002 1.525-1.207-.644-.749-2.452-.188-3.7 8.286-18.432 5.401-55.579 10.31-75.929"/><path fill="#FFBE9D" d="M364.791 181.914c.249-.08 9.915-1.911 8.674 7.648s-10.582 6.342-10.563 6.065 1.889-13.713 1.889-13.713"/><path fill="#EB996E" d="M366.292 192.385c.046-.025.152.138.416.304.258.161.719.309 1.241.187 1.058-.24 2.117-1.732 2.386-3.449a5.5 5.5 0 0 0-.157-2.445c-.201-.737-.59-1.285-1.086-1.441a.854.854 0 0 0-1.042.329c-.163.251-.127.449-.179.459-.03.021-.185-.186-.056-.571.064-.185.205-.396.454-.55.254-.157.603-.208.953-.124.73.147 1.306.911 1.547 1.708.281.806.386 1.766.231 2.739-.311 1.918-1.531 3.593-2.965 3.813-.695.088-1.23-.188-1.49-.451-.266-.274-.289-.495-.253-.508"/><path fill="#263238" d="M314.286 251.154c-.065-.041.585-1.156 1.625-2.955 1.025-1.802 2.458-4.304 3.45-7.291.991-2.986 1.159-5.883.862-7.913-.275-2.043-.859-3.215-.765-3.251.028-.013.199.264.434.803.237.538.506 1.353.696 2.391.4 2.072.285 5.073-.732 8.133-1.017 3.056-2.521 5.559-3.63 7.319a51 51 0 0 1-1.371 2.055c-.337.475-.539.728-.569.709"/><path fill="#FAFAFA" d="M319.163 240.117c-.144.034-.416-.815-1.271-1.39-.836-.604-1.727-.565-1.744-.712-.011-.064.212-.176.605-.183.389-.01.941.123 1.437.468.495.346.811.818.936 1.186.129.372.101.619.037.631m6.173-.013c-.136.079-.894-1.298-2.461-2.309-1.548-1.041-3.113-1.194-3.093-1.35-.026-.132 1.691-.211 3.38.915 1.7 1.106 2.306 2.716 2.174 2.744m3.887 20.289c-.141-.029.118-1.857.578-4.083s.947-4.007 1.088-3.978-.118 1.857-.578 4.083-.947 4.007-1.088 3.978m15.601 3.06c-.144-.005-.2-1.937-.126-4.316.074-2.38.251-4.305.395-4.301s.2 1.937.126 4.317c-.075 2.378-.251 4.304-.395 4.3"/><path fill="#B78876" d="m26.307 307.887-15.419 67.155 32.611.1 15.065-59.054z"/><path fill="#263238" d="M186.454 225.394c-3.099-4.157-6.661-8.147-8.295-13.068-.79-2.377-1.098-4.896-1.939-7.256-.84-2.359-2.368-4.66-4.709-5.55s-4.118.012-5.642 1.676l-11.191 32.73 6.453 25.143c6.435-1.452 14.503-3.169 20.517-5.881 6.014-2.711 10.043-7.05 10.418-13.636.295-5.176-2.513-10.001-5.612-14.158"/><path fill="#E8505B" d="M84.619 219.606s-38.902 16.935-43.764 24.575c-4.861 7.639-20.833 62.108-20.833 62.108l40.955 12.051-.675 56.703h100.502l-.829-99.972-12.608-55.263s-22.19-1.429-24.244-2.441c-2.055-1.013-38.504 2.239-38.504 2.239"/><path fill="#B78876" d="M222.857 80.99c.321-2.293-1.284-4.812-.132-6.821.637-1.11 1.922-1.646 3.116-2.107.616-.238 1.254-.48 1.914-.457s1.356.376 1.573.999c.255.732-.217 1.516-.765 2.064-.548.547-1.217 1.025-1.51 1.742-.393.959-.033 3.967.366 4.924.684 1.642 3.096 8.935 3.307 10.7"/><path fill="#B78876" d="M214.648 81.783c.143-3.471 2.957-17.146 3.1-20.618 2.347.724 3.708 3.224 4.15 5.64s.214 4.914.632 7.335c.561 3.25 2.25 6.18 3.953 9.004s3.477 5.683 4.242 8.891 3.67 11.517 1.41 13.919m-18.139-.771-13.904 66.082c-.49 2.985-52.726 48.543-52.726 48.543l10.317 41.212 68.052-66.532a27.63 27.63 0 0 0 7.442-19.384l-1.154-62.004z"/><path fill="#B78876" d="m211.622 82.201 2.374 22.982 18.027 7.917s.221-1.632.995-9.595c.855-8.787-8.59-12.557-12.796-19.04-1.801-2.776-1.329-7.877-2.72-14.197-.16-.728-1.165-5.144-1.705-7.517-.299-1.313-1.042-2.497-2.16-3.248-.812-.545-1.735-.817-2.411-.004-.689.829.396 22.702.396 22.702"/><path fill="#B78876" d="M222.858 109.039c2.048-1.731 2.486-4.831 1.728-7.403s-2.491-4.73-4.248-6.757-3.61-4.04-4.691-6.495c-.761-1.728-1.115-3.62-1.954-5.312-.84-1.69-2.368-3.24-4.255-3.315 1.507 9.51 1.471 14.981 4.557 25.426"/><path fill="#7C5142" d="M211.274 90.583a13 13 0 0 1-.186-.762l-.482-2.178-1.586-7.482-.059-.28.291-.023c1.187-.093 2.422.432 3.361 1.257 1.574 1.34 2.292 3.222 2.815 4.815.523 1.621.972 3.063 1.582 4.173.555 1.143 1.321 1.836 1.759 2.425.436.578.625.931.599.95-.033.023-.279-.29-.755-.82-.459-.52-1.305-1.214-1.926-2.377-.671-1.122-1.172-2.602-1.714-4.196-.547-1.582-1.246-3.339-2.701-4.575-.871-.762-1.957-1.219-2.99-1.148l.231-.302c1.195 6.023 1.979 10.531 1.761 10.523m8.084-5.848c-.142.02-.885-4.18-1.66-9.383-.775-5.204-1.287-9.44-1.145-9.46s.885 4.179 1.66 9.384c.774 5.202 1.287 9.438 1.145 9.459m5.734.771c.027-.004.071.109.132.353l-.155.033c-.337-.827-1.124-3.419-1.815-6.537a70 70 0 0 1-.932-4.973c-.187-1.282-.251-2.082-.182-2.094.147-.024.762 3.111 1.622 6.954.688 3.105 1.325 5.725 1.459 6.608l-.155.033c-.011-.253-.002-.373.026-.377"/><path fill="#7C5142" d="M228.637 98.177c-.074.044-.437-.518-1.161-1.289a11.4 11.4 0 0 0-3.3-2.42 11.5 11.5 0 0 0-3.949-1.077c-1.055-.087-1.72-.02-1.732-.106-.011-.056.646-.255 1.747-.262 1.096-.011 2.635.244 4.159.976 1.521.738 2.678 1.783 3.352 2.648.682.865.934 1.504.884 1.53m-13.01 8.819c-.062.024-.544-1.002-1.184-2.72a61 61 0 0 1-2.068-6.852 61 61 0 0 1-1.257-7.047c-.207-1.82-.241-2.954-.175-2.96.077-.009.241 1.11.539 2.908s.753 4.274 1.398 6.977a102 102 0 0 0 1.91 6.854c.549 1.74.909 2.812.837 2.84"/><path fill="#E8505B" d="M135.163 220.979c1.675-2.787 5.781-3.747 8.518-1.991 7.341-5.97 14.847-11.822 22.188-17.792-2.395 11.966-3.974 28.737 1.369 39.709 0 0 6.768 12.586 17.548 10.66l-9.611 9.454-15.2 14.051"/><path fill="#263238" d="M132.778 226.599c-.128.007.008-2.224 1.415-4.513 1.385-2.303 3.303-3.451 3.356-3.334.102.125-1.595 1.407-2.911 3.604-1.345 2.18-1.702 4.277-1.86 4.243m7.928 7.352c-.048.023-.485-.772-.835-2.186-.354-1.407-.538-3.453-.153-5.652.394-2.199 1.27-4.057 2.087-5.257.815-1.207 1.499-1.803 1.536-1.766.068.059-.51.737-1.223 1.96a16 16 0 0 0-1.886 5.153 16 16 0 0 0 .001 5.486c.247 1.395.557 2.23.473 2.262"/><path fill="#FAFAFA" d="M177.453 259.684s-.772.539-2.394.962c-1.603.433-4.112.632-7.005-.211-2.893-.811-6.01-2.893-8.423-6.04-2.451-3.129-4.113-7.267-5.022-11.71-1.72-8.932-1.652-17.208-1.199-23.113.232-2.959.565-5.338.836-6.974.13-.819.255-1.451.343-1.878.088-.428.142-.65.16-.647s-.002.232-.056.665l-.246 1.89c-.209 1.641-.484 4.02-.669 6.971-.359 5.883-.364 14.131 1.341 22.98.901 4.395 2.518 8.45 4.893 11.525 2.34 3.092 5.345 5.144 8.149 5.979 2.808.866 5.262.732 6.852.366 1.607-.355 2.416-.824 2.44-.765"/><path fill="#263238" d="M61.192 335.168c-.144 0-.26-14.215-.26-31.746 0-17.537.117-31.749.26-31.749s.26 14.212.26 31.749c.001 17.531-.116 31.746-.26 31.746m-.807-74.464c-.107.003-.077-1.422-.567-3.633-.233-1.107-.657-2.39-1.248-3.759a22.8 22.8 0 0 0-2.47-4.163 23 23 0 0 0-3.367-3.482c-1.165-.931-2.29-1.678-3.297-2.194-2.003-1.055-3.386-1.401-3.355-1.504.01-.035.355.039.977.205a7.5 7.5 0 0 1 1.114.362c.424.17.923.333 1.43.609 1.048.485 2.222 1.215 3.431 2.149a21.7 21.7 0 0 1 3.48 3.539 21.6 21.6 0 0 1 2.496 4.287c.582 1.413.977 2.738 1.17 3.876.131.562.157 1.086.21 1.54.058.454.064.848.055 1.17-.003.646-.023.999-.059.998m68.499-41.529c.018-.003.074.286.165.842.112.554.194 1.38.259 2.45.112 2.133-.082 5.282-1.248 8.951-1.198 3.628-3.447 7.796-7.247 11.221-3.753 3.455-9.152 5.817-15.016 6.274-5.87.423-11.561-1.108-15.787-3.966-4.27-2.82-7.113-6.607-8.84-10.016-1.7-3.454-2.36-6.539-2.567-8.665-.095-1.068-.137-1.896-.11-2.461.008-.563.02-.857.039-.857.018 0 .04.296.067.855.006.561.08 1.383.205 2.438.267 2.101.977 5.136 2.695 8.522 1.744 3.341 4.575 7.04 8.774 9.782 4.154 2.777 9.729 4.261 15.486 3.848 5.752-.45 11.042-2.748 14.735-6.113 3.743-3.337 5.991-7.415 7.217-10.979 1.194-3.604 1.444-6.711 1.395-8.829-.034-1.062-.083-1.886-.161-2.442-.057-.557-.079-.852-.061-.855"/><path fill="#FAFAFA" d="M60.329 305.93c-.045.137-8.304-2.469-18.445-5.82-10.144-3.352-18.33-6.179-18.284-6.315s8.303 2.469 18.447 5.821c10.14 3.35 18.327 6.177 18.282 6.314m98.673-13.877c.001.144-22.054.353-49.254.467-27.21.114-49.26.09-49.261-.054s22.049-.353 49.259-.467c27.2-.114 49.256-.09 49.256.054m.499 8.705c0 .144-22.166.26-49.504.26-27.347 0-49.508-.117-49.508-.26s22.162-.26 49.508-.26c27.337-.001 49.504.116 49.504.26"/><path fill="#263238" d="M145.922 311.342c.017.006-.08.284-.279.807l-.897 2.281-.66 1.645c-.257.595-.57 1.225-.889 1.911-.658 1.362-1.341 2.947-2.29 4.6l-1.432 2.625c-.504.91-1.104 1.811-1.685 2.769-1.136 1.934-2.541 3.874-3.981 5.942-2.997 4.049-6.566 8.306-10.701 12.4-4.176 4.056-8.502 7.541-12.61 10.459-2.096 1.399-4.064 2.767-6.02 3.864-.969.562-1.882 1.144-2.802 1.63l-2.653 1.38c-1.67.917-3.27 1.568-4.644 2.2-.692.305-1.329.606-1.928.851l-1.657.628-2.298.852c-.527.189-.807.28-.813.263s.262-.141.776-.362l2.26-.942 1.635-.668c.592-.258 1.221-.571 1.905-.888 1.36-.655 2.941-1.327 4.595-2.261l2.626-1.404c.911-.493 1.815-1.082 2.775-1.649 1.938-1.109 3.887-2.484 5.966-3.886 4.073-2.926 8.367-6.403 12.522-10.439 4.114-4.074 7.674-8.298 10.679-12.312 1.443-2.051 2.856-3.972 4.002-5.888.586-.949 1.192-1.841 1.703-2.742l1.456-2.599c.967-1.635 1.67-3.204 2.351-4.55.33-.678.656-1.301.925-1.888l.7-1.623.986-2.24c.231-.508.36-.773.377-.766"/><path fill="#000" d="M141.859 320.04c-6.721 8.177-13.759 14.114-23.632 17.929-4.726 1.826-9.68 3.072-14.259 5.238s-8.892 5.442-10.947 10.072c-1.59 3.579-.817 8.968 3.015 9.777 1.455.307 2.95-.162 4.349-.668 19.547-7.086 32.392-24.961 41.474-42.348" opacity=".3"/><path fill="#263238" d="M71.933 142.079c-4.22 3.313-4.504 9.501-4.294 14.863.21 5.361.273 11.457-3.612 15.158-3.2 3.05-8.8 4.183-9.722 8.508-.43 2.018.532 4.257 2.29 5.335 1.76 1.078 4.191.918 5.794-.38-1.357 3.384-.74 7.731 2.145 9.96 2.886 2.228 7.946 1.187 9.042-2.29-.676 2.304.906 5.012 3.245 5.555s4.952-1.192 5.36-3.558m50.993-14.337c.88 2.708 4.202 4.331 6.88 3.361s4.189-4.345 3.129-6.988c-.831-2.074-2.955-3.645-3.058-5.877-.124-2.703 2.71-4.487 5.202-5.542s5.413-2.442 5.806-5.119c.38-2.584-1.845-4.716-3.707-6.547s-3.648-4.609-2.337-6.867c.671-1.155 1.981-1.776 2.857-2.785 1.939-2.234 1.162-5.977-1.077-7.911s-5.451-2.344-8.384-1.961-5.726 1.455-8.598 2.161c-9.473 2.327-19.899.446-27.962-5.044"/><path fill="#B78876" d="M74.795 162.699 85.09 222.34c1.81 10.49 11.812 17.502 22.291 15.629 9.791-1.75 16.623-10.695 15.741-20.603-.471-5.287-.875-9.667-.875-9.667s14.94-3.838 13.649-19.023c-.624-7.338-3.14-22.349-5.573-35.902-2.613-14.555-15.983-24.654-30.701-23.219l-1.463.143c-15.691 2.46-26.257 17.384-23.364 33.001"/><path fill="#263238" d="M127.134 162.613c.152 1.14-.688 2.208-1.876 2.389-1.185.18-2.271-.595-2.423-1.735s.688-2.21 1.873-2.39c1.188-.181 2.274.596 2.426 1.736"/><path fill="#263238" d="M127.79 160.536c-.241.308-2-.746-4.331-.512-2.331.2-3.924 1.565-4.205 1.305-.137-.114.087-.651.779-1.266.681-.612 1.88-1.259 3.333-1.394 1.453-.134 2.726.282 3.481.76.77.481 1.063.968.943 1.107m-23.46 4.739c.152 1.14-.688 2.208-1.875 2.389-1.185.18-2.271-.595-2.423-1.735s.688-2.21 1.873-2.39c1.187-.181 2.273.596 2.425 1.736"/><path fill="#263238" d="M104.922 163.204c-.242.309-2.003-.745-4.331-.512-2.331.2-3.925 1.565-4.206 1.304-.136-.114.085-.65.78-1.265.68-.612 1.88-1.259 3.332-1.394 1.453-.133 2.726.282 3.482.76.768.481 1.062.968.943 1.107m10.143 16.461c-.024-.132 1.401-.523 3.719-1.052.589-.119 1.141-.292 1.202-.709.098-.444-.213-1.061-.569-1.725l-2.202-4.36c-3.073-6.214-5.36-11.348-5.109-11.469s2.947 4.817 6.02 11.032c.743 1.534 1.454 2.995 2.13 4.395.291.654.753 1.384.536 2.306-.117.46-.522.826-.894.966-.37.154-.705.193-.997.239-2.349.355-3.814.509-3.836.377m-10.432-25.653c-.168.656-2.525.583-5.227 1.179-2.715.542-4.842 1.557-5.26 1.024-.188-.256.138-.89.97-1.59.824-.699 2.177-1.418 3.8-1.761 1.625-.339 3.154-.225 4.189.083 1.044.305 1.597.754 1.528 1.065m21.642-.138c-.358.569-2.017.176-3.951.339-1.939.094-3.531.703-3.961.186-.191-.253.015-.808.68-1.379.655-.568 1.793-1.091 3.123-1.18 1.331-.087 2.527.28 3.252.757.736.478 1.013 1.001.857 1.277m-36.633-9.412-.077.074a12 12 0 0 0-3.683 8.147l-.012.31c-.172 4.384.365 8.775.15 13.156-.213 4.382-1.281 8.923-4.186 12.211-1.195 1.353-3.436 2.422-4.656 1.092-.472-.514-.612-1.242-.733-1.93-1.827-10.367-5.583-19.356-6.628-30.281-.285-2.973.843-5.9 3.09-7.867 2.128-1.862 4.754-3.834 7.412-2.878 2.666.958 6.415 5.393 8.582 7.217"/><path fill="#B78876" d="M80.578 169.063c-.27-.087-10.722-2.066-9.38 8.27 1.342 10.337 11.443 6.858 11.423 6.559-.021-.299-2.043-14.829-2.043-14.829"/><path fill="#7C5142" d="M78.954 180.386c-.05-.027-.164.149-.45.329a1.82 1.82 0 0 1-1.342.202c-1.144-.259-2.29-1.873-2.581-3.73a6 6 0 0 1 .169-2.643c.217-.798.638-1.389 1.175-1.558a.924.924 0 0 1 1.127.355c.176.271.137.486.194.496.033.022.2-.202.06-.618a1.16 1.16 0 0 0-.49-.595c-.274-.169-.652-.225-1.03-.134-.79.159-1.412.985-1.673 1.847a6.16 6.16 0 0 0-.25 2.962c.337 2.074 1.656 3.885 3.206 4.123.752.095 1.33-.203 1.612-.488.287-.296.312-.534.273-.548"/><path fill="#263238" d="M80.125 138.136c-2.957-3.899 3.457-10.538 8.418-12.65s11.945-.275 17.203.918c3.317.753 6.665 1.927 10.034 1.458 2.259-.315 4.343-1.35 6.41-2.316s4.226-1.89 6.506-1.956 4.73.911 5.794 2.929.113 5.017-2.105 5.549c2.716-1.857 7.07-.189 7.852 3.007s-2.307 6.685-5.574 6.298c1.366-1.261 3.806.365 3.804 2.223-.002 1.859-1.541 3.361-3.163 4.271-4.139 2.32-9.24 2.206-13.863 1.136s-9.002-3.012-13.597-4.197-12.31-3.363-16.611-1.358c-3.167 1.476-5.064 5.648-7 4.957-1.872-.668-3.189-2.432-3.736-4.343-.548-1.914-.462-3.941-.372-5.926m.58 32.699c.298 5.479.602 10.994 1.88 16.331s3.6 10.542 7.447 14.454c5.042 5.127 11.562 10.043 18.657 11.211 7.75 1.275 17.23-.338 23.538-5.017 2.992-2.219 5.17-7.012 4.243-10.62 2.547-1.166 4.349-3.811 4.503-6.607s-1.55-6.295-3.766-6.671c1.667-.274 2.137-2.912 1.514-4.407-.65-1.559-2.822-1.939-4.481-1.62s-3.106 1.299-4.468 2.298-2.727 2.059-4.333 2.581c-5.359 1.743-10.792-2.985-16.423-2.766-5.091.198-9.622 4.424-14.667 3.715-2.82-.397-5.246-2.347-6.8-4.732-1.556-2.386-.879-11.217-1.49-13.998"/><path fill="#455A64" d="M121.558 194.635c-.038.066-.483-.164-1.241-.372a6.9 6.9 0 0 0-3.011-.153 6.9 6.9 0 0 0-2.767 1.198c-.637.461-.973.832-1.032.784-.047-.034.199-.493.815-1.052.607-.557 1.629-1.18 2.896-1.409s2.442-.004 3.206.305c.776.307 1.166.651 1.134.699" opacity=".6"/><path fill="#fff" d="M110.612 183.146c.377-.059.628 2.471 2.969 4.055 2.337 1.591 5.007 1.044 5.061 1.396.051.155-.553.55-1.688.692-1.113.147-2.778-.053-4.21-1.022-1.428-.972-2.14-2.387-2.327-3.416-.201-1.048.02-1.703.195-1.705"/><path fill="#455A64" d="M103.09 211.136c.008-.016.234.068.653.241a22 22 0 0 0 1.888.611c1.657.467 4.119.966 7.196 1.13 1.536.088 3.228.08 5.026-.101a27.4 27.4 0 0 0 5.646-1.102c1.948-.564 3.902-1.451 5.762-2.627 1.861-1.167 3.64-2.65 4.988-4.539 1.593-2.234 2.405-5.026 1.976-7.494l-.037-.214.186-.08c1.277-.547 2.321-1.519 3.125-2.575a9 9 0 0 0 1.006-1.678c.256-.575.387-1.198.45-1.808.234-2.47-.867-4.759-2.407-6.053l-.143-.12.117-.146c1.018-1.262 1.083-2.934.614-4.114-.464-1.218-1.459-1.927-2.301-2.253a4.4 4.4 0 0 0-2.084-.29c-.486.056-.734.145-.742.119 0 0 .232-.134.726-.227a4.3 4.3 0 0 1 2.173.201c.89.309 1.976 1.033 2.507 2.339.528 1.26.502 3.051-.599 4.466l-.026-.266c1.653 1.351 2.844 3.749 2.619 6.387-.062.653-.195 1.318-.472 1.954a9.2 9.2 0 0 1-1.051 1.781c-.838 1.111-1.922 2.145-3.319 2.751l.149-.293c.479 2.702-.388 5.571-2.042 7.914-1.401 1.965-3.238 3.485-5.142 4.671-1.905 1.196-3.908 2.093-5.895 2.655a27.3 27.3 0 0 1-5.746 1.073 31.4 31.4 0 0 1-5.087.039c-3.106-.213-5.578-.773-7.232-1.303-.83-.26-1.456-.519-1.871-.709-.409-.209-.619-.324-.611-.34M57.757 184.75s-.206-.039-.527-.259c-.319-.214-.754-.633-1.049-1.321a4.44 4.44 0 0 1-.208-2.665c.222-1.051.96-2.098 1.99-2.923 1.035-.834 2.36-1.451 3.796-1.973 1.43-.533 2.992-1.004 4.421-1.878 1.428-.864 2.592-2.256 3.333-3.919.758-1.66 1.122-3.557 1.177-5.5.084-3.914-.82-7.618-.92-11.074-.158-3.436.504-6.665 2.073-8.828 1.548-2.169 3.611-3.17 5.042-3.426.723-.15 1.3-.11 1.681-.085.381.059.577.098.575.116-.002.07-.813-.156-2.213.167-1.373.307-3.332 1.327-4.782 3.439-1.464 2.097-2.076 5.221-1.896 8.599.12 3.393 1.043 7.094.962 11.107-.056 1.999-.434 3.965-1.233 5.698-.778 1.735-2.027 3.215-3.546 4.117-1.51.906-3.103 1.363-4.525 1.875-1.426.498-2.714 1.08-3.716 1.857-.996.772-1.702 1.733-1.934 2.703a4.3 4.3 0 0 0 .113 2.521c.533 1.342 1.452 1.597 1.386 1.652m74.968-52.887c-.005-.013.15-.085.457-.213.152-.07.345-.142.585-.198a4.3 4.3 0 0 1 .835-.17c1.25-.191 3.334.111 5.094 1.831l.001.001.006.007c1.177 1.477 1.88 3.745 1.546 6.198-.28 2.457-1.753 5.011-4.101 6.772-2.326 1.797-5.428 2.836-8.693 3.019-3.276.199-6.689-.296-10.098-1.11-5.563-1.342-10.555-3.738-14.651-6.488-2.067-1.337-4.024-2.612-6.007-3.497a16.6 16.6 0 0 0-5.8-1.48 17.44 17.44 0 0 0-8.507 1.581c-1.875.885-2.766 1.642-2.802 1.587 0 0 .843-.816 2.714-1.77 1.854-.931 4.835-1.966 8.618-1.766 1.875.1 3.933.545 5.953 1.453 2.03.886 4.019 2.165 6.09 3.488 4.089 2.711 9.012 5.056 14.516 6.386 3.371.806 6.745 1.298 9.943 1.113 3.192-.17 6.189-1.164 8.446-2.881 2.276-1.689 3.696-4.106 3.993-6.459.347-2.352-.296-4.529-1.395-5.962l.007.008c-1.635-1.654-3.639-2.014-4.856-1.872-1.254.135-1.876.48-1.894.422"/><path fill="#455A64" d="M127.427 123.054s.069.86-.472 2.289c-.545 1.403-1.891 3.309-4.273 4.665a12.2 12.2 0 0 1-4.172 1.497c-1.581.263-3.306.253-5.08.02-3.57-.442-7.261-1.849-11.144-3.058-3.869-1.209-7.786-1.927-11.223-1.185-3.435.705-6.129 2.645-7.888 4.596-1.784 1.969-2.726 3.959-3.196 5.363-.462 1.417-.548 2.249-.61 2.238-.018-.002.002-.209.056-.602.036-.397.17-.966.361-1.698.417-1.443 1.324-3.5 3.115-5.548 1.766-2.028 4.51-4.061 8.063-4.82 3.56-.794 7.58-.06 11.474 1.156 3.914 1.221 7.561 2.623 11.055 3.081 1.735.241 3.416.265 4.949.029a12 12 0 0 0 4.057-1.391c2.334-1.276 3.679-3.081 4.268-4.424.585-1.364.593-2.22.66-2.208"/><path fill="#E8505B" d="M215.685 320.029c2.829.371 5.346 2.167 7.013 4.482 1.668 2.315 2.559 5.11 3.031 7.924.912 5.444-.56 11.625-2.579 16.763-5.55-2.604-8.508-9.072-9.802-12.447-2.047-5.335-2.504-16.219 2.337-16.722m15.646 36.83c-1.761-2.657-1.719-6.294-.214-9.103s4.318-4.796 7.386-5.661c1.418-.4 3.057-.544 4.263.303 1.128.792 1.587 2.304 1.408 3.67s-.902 2.603-1.746 3.692c-2.894 3.735-6.381 6.818-11.097 7.099"/><path fill="#263238" d="M229.929 374.103c-.043.002-.107-.406-.186-1.146a65 65 0 0 1-.245-3.143c-.133-2.649-.243-6.383.634-10.404.882-4.025 2.833-7.353 4.729-9.266.939-.967 1.814-1.629 2.456-2.017.641-.391 1.024-.553 1.041-.522.071.104-1.427.869-3.176 2.836-1.761 1.935-3.585 5.182-4.446 9.104-.858 3.925-.823 7.612-.801 10.255.044 2.651.086 4.298-.006 4.303"/><path fill="#263238" d="M216.976 328.286c.041-.013.288.621.7 1.78.414 1.159.984 2.844 1.666 4.935a432 432 0 0 1 4.978 16.447 434 434 0 0 1 4.339 16.63 200 200 0 0 1 1.154 5.079c.253 1.204.374 1.874.332 1.884s-.241-.641-.566-1.827l-1.345-5.029a1105 1105 0 0 0-4.51-16.569 1107 1107 0 0 0-4.8-16.485l-1.478-4.992c-.341-1.18-.511-1.839-.47-1.853"/><path fill="#E8505B" d="M223.939 362.035c-2.707-6.15-8.56-10.813-15.16-12.077-1.68-.322-3.753-.275-4.687 1.158-.936 1.436-.135 3.359.873 4.745 4.194 5.768 12.109 8.535 18.983 6.638"/><path fill="#263238" d="M210.624 354.795c.007-.042.399 0 1.106.113.355.05.786.129 1.275.271.49.136 1.06.259 1.656.497 1.218.404 2.613 1.049 4.082 1.903a26 26 0 0 1 4.383 3.355 26 26 0 0 1 3.495 4.273c.901 1.441 1.591 2.814 2.034 4.018.257.588.398 1.154.55 1.639.158.484.251.912.312 1.265.136.703.19 1.092.148 1.101-.118.027-.421-1.525-1.415-3.84-.486-1.161-1.201-2.482-2.106-3.872a28 28 0 0 0-3.449-4.141 27.6 27.6 0 0 0-4.249-3.312c-1.419-.86-2.762-1.532-3.938-1.98-2.345-.919-3.907-1.172-3.884-1.29"/></svg>
