<svg height="400" viewBox="0 0 400 400" width="400" xmlns="http://www.w3.org/2000/svg"><g fill="none" fill-rule="evenodd" transform="translate(96 50)"><path d="m178.589875 25.8843526c49.035188 48.3105297 32.85116 149.2795364-21.256633 188.6526184-10.628317 8.454343-23.189054 15.700922-36.232897 20.773528-13.526949 4.831053-16.667133 11.352974-18.358002 25.846133-.724658 4.831053-1.207763 12.319185-1.932421 16.908686-1.932421 13.043843-13.2853954 20.290422-28.2616596 21.739738-24.3968175 1.690869-38.6484238-7.488132-41.7886082-32.609608 0 0-27.77855462-156.04301-27.77855462-156.04301-9.66210594-66.1854262 1.69086854-99.5196917 71.01647862-108.94024497 37.6822128-5.79726357 81.6447948-.9662106 104.5922968 23.67215957zm-82.3694531 92.5146644c-1.6908685 2.415526-1.6908685 5.555711-1.9324212 8.21279-.9662106 18.841107-1.6908685 38.648424.9662106 57.006425 8.2127897-7.971237 16.9086857-21.981291 19.3242117-31.160292 4.589501-16.42558 2.415527-34.300476-4.347947-36.47445-7.24658-2.415526-10.8698697-1.690868-14.0100541 2.415527z" fill="#004666" fill-rule="nonzero"/><path d="m187.28577 59.943276c30.677187 41.547056 4.589501 118.843903-35.025134 148.071774-14.251606 13.285395-35.025134 17.150238-49.518293 28.744765-9.4205529 10.628316-7.7296843 28.020107-10.3867635 41.547055-3.0231294 14.185454-26.867084 16.505276-40.2793768 11.05462-.3462142-.140699-9.0620813-48.512812-26.1476015-145.11634-7.2465795-46.1365555-8.937448-92.2731114 46.6196612-102.4183226 37.9237656-7.9712374 84.7849796-10.3867639 114.7375076 18.1164486zm-98.0703749 54.349346c-4.1029173 4.801615-7.358014 33.079762-.7246579 75.605979.9662106 10.145211 9.6621059 4.106395 14.7347118-1.449316 9.662106-9.662106 19.116432-27.94742 21.01508-37.44066 3.140185-14.976265 2.415527-37.199108-10.869869-41.547056-10.145211-4.347948-18.1164487-3.864842-24.1552649 4.831053z" fill="#00aeff"/></g></svg>